<?xml version="1.0" encoding="utf-8"?>
<!-- Generator: Adobe Illustrator 23.0.3, SVG Export Plug-In . SVG Version: 6.00 Build 0)  -->
<svg version="1.1" id="Layer_1" xmlns="http://www.w3.org/2000/svg" xmlns:xlink="http://www.w3.org/1999/xlink" x="0px" y="0px"
	 viewBox="0 0 724 724" style="enable-background:new 0 0 724 724;" xml:space="preserve">
<style type="text/css">
	.st0{fill-rule:evenodd;clip-rule:evenodd;fill:url(#SVGID_1_);}
	.st1{fill-rule:evenodd;clip-rule:evenodd;fill:url(#SVGID_2_);}
	.st2{fill:none;}
</style>
<linearGradient id="SVGID_1_" gradientUnits="userSpaceOnUse" x1="63.9112" y1="783.0985" x2="64.9112" y2="782.0985" gradientTransform="matrix(721.094 0 0 -482.937 -46085.1094 378271.75)">
	<stop  offset="0" style="stop-color:#2DB34A"/>
	<stop  offset="0.4991" style="stop-color:#939598"/>
	<stop  offset="1" style="stop-color:#D41700"/>
</linearGradient>
<path class="st0" d="M361.5,567.4C162.3,567.4,0.9,459.3,0.9,326c0-133.4,161.4-241.5,360.5-241.5C560.6,84.5,722,192.6,722,326
	C722,459.3,560.6,567.4,361.5,567.4z M416.6,178.9c-151.4,0-274,73.9-274,165.1s122.7,165.1,274,165.1c151.4,0,263-50.5,263-165.1
	C679.7,229.5,568,178.9,416.6,178.9z"/>
<linearGradient id="SVGID_2_" gradientUnits="userSpaceOnUse" x1="63.7763" y1="782.9808" x2="64.7762" y2="781.9809" gradientTransform="matrix(398 0 0 -406.124 -25110 318247.2812)">
	<stop  offset="0" style="stop-color:#276DC3"/>
	<stop  offset="1" style="stop-color:#165CAA"/>
</linearGradient>
<path class="st1" d="M550,458.5c0,0,21.8,6.6,34.5,13c4.4,2.2,12,6.7,17.5,12.5c5.4,5.7,8,11.5,8,11.5l86,145l-139,0.1l-65-122.1
	c0,0-13.3-22.9-21.5-29.5c-6.8-5.5-9.7-7.5-16.5-7.5c-4.7,0-33,0-33,0l0,159l-123,0.1V234.4h247c0,0,112.5,2,112.5,109.1
	S550,458.5,550,458.5z M496.5,322.5l-74.5,0l0,69.1l74.5,0c0,0,34.5-0.1,34.5-35.1C531,320.7,496.5,322.5,496.5,322.5z"/>
<path id="SVGID_x5F_3_x5F_" class="st2" d="M28,454.4c0-180.7,286.2-327,640-327"/>
<text><textPath  xlink:href="#SVGID_x5F_3_x5F_" startOffset="16.8528%">
<tspan  style="font-family:'KohinoorTelugu-Regular'; font-size:69.8221px;">L. Collado Torres</tspan></textPath>
</text>
</svg>
